<?xml version="1.0" standalone="no"?>
<!DOCTYPE svg PUBLIC "-//W3C//DTD SVG 20010904//EN"
 "http://www.w3.org/TR/2001/REC-SVG-20010904/DTD/svg10.dtd">
<svg version="1.0" xmlns="http://www.w3.org/2000/svg"
 width="640.000000pt" height="640.000000pt" viewBox="0 0 640.000000 640.000000"
 preserveAspectRatio="xMidYMid meet">

<g transform="translate(0.000000,640.000000) scale(0.100000,-0.100000)"
fill="#000000" stroke="none">
<path d="M2895 3744 c-90 -20 -149 -48 -203 -98 -54 -49 -77 -94 -92 -174 -8
-47 -8 -77 1 -123 8 -40 9 -63 2 -70 -17 -17 -109 -23 -119 -8 -5 8 -50 118
-100 244 l-92 230 -121 0 -122 0 -100 -240 c-55 -132 -111 -269 -125 -305 -15
-36 -31 -70 -38 -76 -6 -5 -36 -18 -66 -28 -92 -31 -199 -85 -215 -110 -9 -13
-13 -31 -9 -40 9 -23 67 -51 134 -65 156 -34 641 -32 1020 4 85 8 234 22 330
30 188 17 454 49 535 65 28 6 109 21 180 35 72 13 162 31 200 40 39 8 95 20
125 26 192 37 429 110 515 159 106 61 91 88 -70 129 -54 13 -155 21 -364 26
-156 5 -177 8 -203 26 -16 12 -75 39 -130 60 -55 21 -109 46 -119 55 -27 24
-24 59 7 83 32 25 112 28 192 8 28 -8 54 -12 57 -9 3 3 5 29 5 59 0 49 -2 54
-27 64 -16 6 -73 13 -128 16 -225 13 -359 -73 -342 -219 7 -57 33 -98 82 -128
19 -12 35 -25 35 -29 0 -9 -147 -29 -200 -27 -35 1 -35 1 -40 56 l-5 55 -155
0 -155 0 0 -54 c0 -54 0 -55 35 -64 31 -8 33 -10 14 -17 -35 -13 -168 -21
-183 -11 -19 13 -26 114 -12 169 32 116 205 178 364 128 57 -17 61 -12 62 68
0 46 -2 50 -30 58 -60 17 -256 19 -330 2z m-687 -257 c18 -63 32 -119 32 -125
0 -8 -26 -12 -80 -12 -49 0 -80 4 -80 10 0 9 40 131 75 228 11 29 24 5 53
-101z m1477 -151 c80 -34 63 -112 -29 -130 -34 -7 -66 -5 -126 8 -44 9 -85 14
-90 11 -6 -3 -10 -32 -10 -65 0 -46 4 -59 18 -65 9 -4 76 -9 148 -12 115 -5
140 -3 201 15 57 18 78 30 111 66 40 43 49 67 54 146 l3 35 65 -3 c96 -5 197
-30 228 -57 l27 -23 -20 -27 c-52 -70 -336 -167 -615 -211 -149 -23 -140 -22
-310 -39 -85 -8 -193 -19 -240 -25 -149 -17 -429 -22 -577 -11 -170 13 -264
39 -281 76 -14 31 -9 46 29 74 28 21 32 21 48 7 14 -13 41 -16 124 -16 l106 0
-11 33 c-20 64 -17 71 41 90 54 18 55 18 80 -3 53 -42 117 -81 171 -102 49
-20 73 -22 215 -22 115 0 171 4 200 14 l40 15 5 105 c5 103 5 105 30 108 24 2
243 17 303 21 15 0 43 -6 62 -13z m-607 -78 l-3 -43 -60 -3 c-66 -3 -130 21
-130 48 0 17 81 37 153 39 l43 1 -3 -42z m-884 -37 c7 -10 -141 -40 -161 -33
-9 3 -10 9 -2 23 8 16 21 19 84 19 40 0 76 -4 79 -9z"/>
<path d="M3290 2853 c-78 -14 -130 -53 -130 -98 0 -72 108 -121 217 -99 28 5
30 9 31 55 l1 49 -50 0 c-27 0 -49 -4 -49 -10 0 -5 9 -10 19 -10 23 0 31 -18
20 -47 -9 -25 -30 -29 -76 -13 -30 11 -53 45 -53 79 0 47 84 92 144 77 14 -3
28 -2 31 4 3 5 3 10 -2 10 -4 1 -24 2 -43 4 -19 2 -46 2 -60 -1z"/>
<path d="M4413 2849 c-44 -13 -73 -53 -73 -100 0 -84 113 -124 209 -74 33 17
41 33 41 83 -1 46 -17 67 -63 87 -40 17 -67 18 -114 4z m97 -29 c41 -41 16
-150 -35 -150 -37 0 -55 10 -71 42 -42 81 45 169 106 108z"/>
<path d="M3490 2755 l0 -95 29 0 c27 0 30 3 33 37 2 30 8 38 28 43 23 6 28 3
44 -35 12 -30 24 -44 41 -48 14 -2 27 -2 29 0 9 9 -18 58 -43 80 l-26 22 32
11 c41 15 48 35 21 60 -18 17 -35 20 -105 20 l-83 0 0 -95z m137 63 c30 -25 1
-58 -51 -58 -31 0 -46 41 -25 66 13 16 52 12 76 -8z"/>
<path d="M3771 2770 c3 -65 8 -82 24 -94 47 -35 163 -26 185 14 5 10 10 51 10
90 l0 71 -27 -3 c-28 -3 -28 -3 -25 -71 3 -54 0 -72 -14 -88 -18 -20 -74 -27
-74 -8 0 5 -5 7 -10 4 -6 -4 -10 -3 -9 2 1 4 1 43 0 86 l-1 77 -31 0 -31 0 3
-80z"/>
<path d="M4080 2755 l0 -95 31 0 c28 0 30 2 27 32 -3 32 -2 32 51 40 65 10 81
21 81 59 0 43 -32 59 -117 59 l-73 0 0 -95z m130 60 c6 -8 10 -22 8 -31 -3
-19 -51 -39 -73 -30 -15 5 -21 57 -8 69 12 12 60 7 73 -8z"/>
</g>
</svg>
