<?xml version="1.0" standalone="no"?>
<!DOCTYPE svg PUBLIC "-//W3C//DTD SVG 20010904//EN"
 "http://www.w3.org/TR/2001/REC-SVG-20010904/DTD/svg10.dtd">
<svg version="1.0" xmlns="http://www.w3.org/2000/svg"
 width="160.000000pt" height="60.000000pt" viewBox="0 0 160.000000 60.000000"
 preserveAspectRatio="xMidYMid meet">

<g transform="translate(0.000000,60.000000) scale(0.100000,-0.100000)"
fill="#000000" stroke="none">
<path d="M580 355 c-16 -39 -32 -60 -52 -71 -48 -25 -22 -34 90 -32 l107 2
-95 5 c-55 4 -90 9 -82 14 7 5 21 5 32 2 11 -4 20 -2 20 4 0 6 5 11 11 11 5 0
7 -4 4 -10 -3 -5 -2 -10 3 -10 6 0 13 7 16 16 3 8 2 13 -2 10 -11 -7 -38 11
-30 20 4 4 19 -1 32 -10 27 -17 56 -21 56 -8 0 5 -11 32 -25 60 -34 71 -56 70
-85 -3z m53 -17 c-2 -5 -8 -8 -14 -8 -11 0 -12 33 -2 44 8 8 23 -25 16 -36z"/>
<path d="M735 398 c-65 -37 -37 -108 42 -108 34 0 41 4 45 23 2 12 3 28 0 35
-6 18 -52 15 -52 -3 0 -8 5 -15 10 -15 6 0 10 -4 10 -10 0 -5 -9 -10 -20 -10
-24 0 -38 44 -20 65 7 8 26 15 42 15 17 0 27 4 23 10 -8 13 -55 12 -80 -2z"/>
<path d="M862 398 c-22 -22 -14 -48 18 -59 34 -12 31 -29 -6 -29 -13 0 -24 -5
-24 -11 0 -6 17 -9 41 -7 33 2 44 8 50 26 8 21 5 25 -21 35 -37 14 -39 37 -4
37 14 0 23 4 19 10 -9 14 -58 13 -73 -2z"/>
<path d="M983 333 c9 -2 17 -8 17 -13 0 -5 -8 -14 -17 -19 -27 -16 -8 -13 38
5 47 19 37 34 -21 33 -19 -1 -27 -3 -17 -6z"/>
<path d="M941 224 c0 -11 3 -14 6 -6 3 7 2 16 -1 19 -3 4 -6 -2 -5 -13z"/>
<path d="M971 224 c0 -11 3 -14 6 -6 3 7 2 16 -1 19 -3 4 -6 -2 -5 -13z"/>
</g>
</svg>
